<svg xmlns="http://www.w3.org/2000/svg" viewBox="0 0 512 512" fill="#ffffff" aria-hidden="true">
  <path d="M495.7 256.3c-4.7-12.4-46.8-119.2-169-140.9-2.7-.5-5.3-1.7-7.4-3.6C241.9 60.3 175.1 63 175.1 63s22.3 54.2 17.6 84.7c-1 .2-80.9 48.6-116.1 90.9C38.6 208.3 0 189 0 189s.1 44.9 27.9 83.2C0 317.6 0 359 0 359s38.7-2.2 77.6-31.2c35.3 42.2 112.2 84.9 113.2 85.2-4.7 30.5-1.3 66.8-1.3 66.8s63.6-11.9 100.9-49.6c2.1-2.1 4.6-3.4 7.4-3.6 122.1-11.9 164.2-128.6 168.9-140.8zM394.9 199.5c10 0 18.1 8.1 18.1 18.1s-8.1 18.1-18.1 18.1-18.1-8.1-18.1-18.1 8.1-18.1 18.1-18.1z"/>
</svg>
